<svg xmlns="http://www.w3.org/2000/svg" width="147.289" height="25.85" viewBox="0 0 147.289 25.85"><defs><style>.a{fill:#fff;}</style></defs><g transform="translate(-69.965 -259.597)"><g transform="translate(132.021 259.597)"><g transform="translate(0 0)"><path class="a" d="M254.5,261.338h13.379v3.015h-9.954v5.065h9.749v3.015h-9.749v8.431H254.5Z" transform="translate(-254.497 -260.752)"/><path class="a" d="M307.731,275.267c4.245,0,6.968,3.25,6.968,7.7v.732h-10.92a4.283,4.283,0,0,0,4.508,3.893,5.984,5.984,0,0,0,4.011-1.552l1.406,2.02a8.243,8.243,0,0,1-5.738,2.05,7.423,7.423,0,0,1-.234-14.843Zm-3.981,6.265h7.963a3.782,3.782,0,0,0-3.982-3.747A3.9,3.9,0,0,0,303.75,281.532Z" transform="translate(-285.069 -269.997)"/><path class="a" d="M356.229,275.267c4.245,0,6.968,3.25,6.968,7.7v.732h-10.92a4.283,4.283,0,0,0,4.508,3.893,5.984,5.984,0,0,0,4.011-1.552l1.405,2.02a8.242,8.242,0,0,1-5.738,2.05,7.423,7.423,0,0,1-.234-14.843Zm-3.981,6.265h7.963a3.782,3.782,0,0,0-3.982-3.747A3.9,3.9,0,0,0,352.248,281.532Z" transform="translate(-317.258 -269.997)"/><path class="a" d="M400.166,261.338h3.074v19.527h-3.074Z" transform="translate(-351.179 -260.752)"/><path class="a" d="M420.016,261.5a1.9,1.9,0,1,1,1.9,1.9A1.918,1.918,0,0,1,420.016,261.5Zm.381,4.069h3.074v14.14H420.4Z" transform="translate(-364.354 -259.597)"/><path class="a" d="M439.338,279.545v-8.168H437v-2.693h2.342V264.82h3.074v3.864h2.869v2.693h-2.869v7.407c0,.966.469,1.669,1.347,1.669a1.981,1.981,0,0,0,1.375-.5l.732,2.313a4.053,4.053,0,0,1-2.9.908A3.261,3.261,0,0,1,439.338,279.545Z" transform="translate(-375.624 -263.064)"/><path class="a" d="M466.887,294.512a1.915,1.915,0,0,0,2.02-1.23l.7-1.61-5.8-14.316h3.278l4.128,10.6,4.128-10.6h3.308l-6.822,16.687a4.733,4.733,0,0,1-4.859,3.191,8.714,8.714,0,0,1-1.727-.2v-2.752A6.159,6.159,0,0,0,466.887,294.512Z" transform="translate(-393.423 -271.384)"/></g></g><g transform="translate(83.178 260.037)"><path class="a" d="M109.257,275.56l8.354-4.778-8.354-4.857v-5.019l11.305,7.227v5.218l-11.305,7.227Z" transform="translate(-109.257 -260.906)"/></g><g transform="translate(96.392 260.037)"><path class="a" d="M159.854,265.925,151.5,270.7l8.354,4.858v5.018l-11.3-7.227v-5.218l11.3-7.227Z" transform="translate(-148.549 -260.906)"/></g><g transform="translate(109.605 260.037)"><g transform="translate(0 0)"><path class="a" d="M187.84,275.56l8.354-4.778-8.354-4.857v-5.019l11.305,7.227v5.218l-11.305,7.227Z" transform="translate(-187.84 -260.906)"/></g></g><g transform="translate(69.965 260.037)"><g transform="translate(0 0)"><path class="a" d="M81.27,265.925,72.917,270.7l8.354,4.858v5.018l-11.305-7.227v-5.218l11.305-7.227Z" transform="translate(-69.965 -260.906)"/></g></g></g></svg>